<?xml version="1.0" standalone="no"?>
<!DOCTYPE svg PUBLIC "-//W3C//DTD SVG 20010904//EN"
 "http://www.w3.org/TR/2001/REC-SVG-20010904/DTD/svg10.dtd">
<svg version="1.0" xmlns="http://www.w3.org/2000/svg"
 width="1024.000000pt" height="1024.000000pt" viewBox="0 0 1024.000000 1024.000000"
 preserveAspectRatio="xMidYMid meet">
<metadata>
Created by potrace 1.11, written by Peter Selinger 2001-2013
</metadata>
<g transform="translate(0.000000,1024.000000) scale(0.100000,-0.100000)"
fill="#000000" stroke="none">
<path d="M2770 9472 c-35 -2 -139 -17 -190 -27 -59 -12 -197 -82 -260 -133
-104 -83 -196 -200 -242 -307 -55 -125 -61 -173 -62 -497 -1 -147 -4 -270 -7
-272 -3 -3 -160 -6 -350 -6 -249 -1 -360 -5 -401 -15 -186 -43 -353 -181 -434
-359 -56 -122 -53 63 -50 -3381 1 -1749 5 -3193 9 -3208 47 -175 170 -333 332
-422 27 -15 83 -36 125 -47 74 -20 107 -20 3565 -20 3168 0 3496 1 3557 16
229 54 425 254 470 480 12 59 14 566 13 3250 -1 3451 3 3216 -57 3343 -78 168
-271 323 -433 349 -27 4 -53 9 -57 10 -5 1 -162 2 -350 3 l-343 1 -1 268 c-1
318 -4 345 -46 462 -67 188 -227 360 -411 445 -118 53 -209 67 -462 67 -238 0
-280 -3 -375 -28 -251 -67 -472 -286 -540 -536 -26 -98 -29 -133 -29 -425 l-1
-253 -930 0 c-879 0 -930 1 -931 18 0 9 -2 141 -3 292 -3 293 -9 335 -56 451
-56 134 -176 278 -299 357 -71 46 -188 94 -271 111 -51 10 -376 19 -480 13z
m367 -625 c39 -6 76 -33 100 -72 17 -28 18 -70 18 -775 0 -730 0 -746 -20
-780 -12 -20 -38 -44 -61 -56 -37 -18 -57 -20 -236 -19 -223 2 -244 8 -282 80
-20 39 -21 51 -21 755 0 393 3 733 8 755 8 40 35 77 72 98 33 19 327 29 422
14z m3760 -11 c38 -19 63 -48 76 -88 9 -25 12 -235 11 -759 -1 -810 2 -775
-71 -820 -33 -21 -50 -22 -217 -24 -195 -2 -235 3 -275 33 -58 42 -56 13 -57
812 -2 806 -3 788 58 831 39 28 99 34 290 32 114 -2 165 -6 185 -17z m1328
-4953 l0 -2483 -3416 0 -3416 0 2 2483 c1 1365 3 2483 3 2483 1 1 1538 1 3415
0 l3412 -1 0 -2482z"/>
<path d="M4604 5427 c-16 -5 -40 -19 -52 -31 -53 -47 -52 -33 -52 -638 l0
-563 -568 0 -569 0 -36 -25 c-64 -44 -72 -77 -70 -297 1 -167 3 -197 19 -221
26 -40 53 -61 93 -71 20 -5 268 -10 551 -10 283 0 530 0 548 -1 l32 0 0 -563
c0 -639 -3 -612 80 -654 41 -21 57 -23 231 -23 174 0 189 1 229 23 83 44 80
16 80 654 l0 563 48 0 c26 1 274 1 552 2 278 1 519 5 536 9 36 10 82 52 96 89
6 14 10 111 10 216 0 211 -4 229 -62 278 -18 15 -45 27 -63 27 -18 1 -275 2
-572 3 l-540 1 -5 570 c-4 433 -8 575 -18 592 -7 12 -28 34 -48 49 l-36 28
-193 1 c-106 0 -206 -3 -221 -8z"/>
</g>
</svg>
